<?xml version="1.0" encoding="UTF-8"?>
<svg id="Layer_2" xmlns="http://www.w3.org/2000/svg" viewBox="0 0 575.57 606.42" >
<defs>
    <style>.cls-1{letter-spacing:.1em;}.cls-2,.cls-3,.cls-4,.cls-5{stroke-width:0px;}.cls-2,.cls-6{fill:#fcc01d;}.cls-3,.cls-7{fill:#f08246;}.cls-8{letter-spacing:0em;}.cls-9{letter-spacing:.07em;}.cls-6{font-size:27.5px;}.cls-6,.cls-7{font-family:Quicksand-Bold, Quicksand;font-weight:700;}.cls-4{fill:#43bede;}.cls-5{fill:#3bb181;}.cls-7{font-size:113.78px;}</style>
</defs>
<g id="Layer_1-2">
    <text class="cls-7" transform="translate(77.69 538.3)">
        <tspan class="cls-8" x="0" y="0">T</tspan>
        <tspan class="cls-1" x="74.3" y="0">A</tspan>
        <tspan class="cls-9" x="159.18" y="0">N</tspan>
        <tspan class="cls-1" x="254.3" y="0">ITI</tspan>
    </text>
    <text class="cls-6" transform="translate(0 601.25)">
        <tspan x="0" y="0" xml:space="preserve">D I S C O V E R  Y O U R  A D V E N T U R E</tspan>
    </text>
    <path class="cls-3" d="M173.08,187.41l2.19-25.89-21.2,21.18c-6.24-1.72-12.48-3.65-18.61-5.77v50.38c18.15-12.97,56.13-32.9,91.59-39.91-8.87-1.41-43.95,2.22-53.97,0Z"/>
    <path class="cls-4" d="M403.07,168.56v17.99s-61.83,15.3-61.83,15.3c49.87,8.43,84.71,62.48,98.87,88.66v-116.25l-9.43,3.17-27.61-8.86Z"/>
    <path class="cls-5" d="M360.44,65.57c43.9-24.06,79.67-17.31,79.67-17.31V0H135.46v47.51l28.86-4.01c130.35-10.41,117.04,107.05,111.2,115.04,0,0-13.86-35.56-60.86-54.12,0-7.27-.7-21.49-.7-21.49,0,0-12.28,11.87-16.63,15.28-3.34-1-24.03-10.76-56.11-9.54l32.92-26.58-38.69,14.88v37.37c91.59-7.41,142.32,59.92,142.32,59.92,52.99-40.45,111.57-58.85,162.33-66.47v-22.2c-5.11,2.25-11,4.63-17.27,6.75-21.88-13.84-32.65-20.03-32.65-20.03l18.43,24.68c-.04.1-.04.09-.09.2-18.11,3.83-29.67,7.69-47.55,15.47-11.46-8.62-17.23-12.07-17.23-12.07l.21,18.57c-9.58,4.92-23.28,13.9-32.62,20.26l-5.16-6.33-1.87,11.28c-.73.53-9.83,6.32-14.31,7.63-.02,0,26.52-62.39,70.42-86.45Z"/>
    <path class="cls-4" d="M135.46,385.12v27.1h222.77c-57.76-17.45-137.73-33.72-222.77-27.1Z"/>
    <path class="cls-2" d="M432.17,304.69l-17.28-29.34,1.97,26.05s-21.81-5.16-44.38-20.34l.2-25.55-13.98,17.02c-18.84-12.23-42.98-31.56-42.98-31.56l12.22-15.64-21.76,7.35c7.83,21.14-3,113.97-18.46,143.51,27.28,9.97,65.12,26.21,95.9,36.03h56.5v-107.04c-2.58,0-5.23-.16-7.94-.49Z"/>
    <path class="cls-3" d="M265.49,229.85c-6.45,2.61-32.65,12.95-63.51,21.45l-5.83-10.83-11.74,15.31c-16.52,3.86-33.52,6.74-48.96,7.36v100.91c26.74-6.45,63.59-8.88,112.38.68,20.44-20.94,44.5-95.14,17.65-134.87Z"/>
</g>
</svg>